Coordinates
version=1
nRows=12
nColumns=63
inDegrees=yes

Units are S.I. units (second, meters, Newtons, ...)
If the header above contains a line with 'inDegrees', this indicates whether rotational values are in degrees (yes) or radians (no).

endheader
time	pelvis_tilt	pelvis_list	pelvis_rotation	pelvis_tx	pelvis_ty	pelvis_tz	hip_flexion_r	hip_adduction_r	hip_rotation_r	knee_angle_r	knee_angle_r_beta	ankle_angle_r	subtalar_angle_r	mtp_angle_r	hip_flexion_l	hip_adduction_l	hip_rotation_l	knee_angle_l	knee_angle_l_beta	ankle_angle_l	subtalar_angle_l	mtp_angle_l	L5_S1_Flex_Ext	L5_S1_Lat_Bending	L5_S1_axial_rotation	L4_L5_Flex_Ext	L4_L5_Lat_Bending	L4_L5_axial_rotation	L3_L4_Flex_Ext	L3_L4_Lat_Bending	L3_L4_axial_rotation	L2_L3_Flex_Ext	L2_L3_Lat_Bending	L2_L3_axial_rotation	L1_L2_Flex_Ext	L1_L2_Lat_Bending	L1_L2_axial_rotation	L1_T12_Flex_Ext	L1_T12_Lat_Bending	L1_T12_axial_rotation	Abs_r3	Abs_r2	Abs_r1	Abs_t1	Abs_t2	neck_flexion	neck_bending	neck_rotation	arm_flex_r	arm_add_r	arm_rot_r	elbow_flex_r	pro_sup_r	wrist_flex_r	wrist_dev_r	arm_flex_l	arm_add_l	arm_rot_l	elbow_flex_l	pro_sup_l	wrist_flex_l	wrist_dev_l
9.232143	-9.267581	1.090709	91.043713	0.106215	1.087799	0.268331	-3.332962	-9.845295	-24.168278	16.121499	0.281373	41.961820	17.801047	0.000000	-1.188230	7.351900	0.555512	13.577593	0.236974	34.813103	13.803283	0.000000	-0.223701	-1.383743	3.896510	-0.415435	-1.840378	4.140041	-0.367518	-3.364433	4.140041	-0.255668	-3.364433	3.409446	-0.207729	-2.821729	3.165914	-0.127823	-2.143418	2.922382	-1.597873	-15.653178	21.671218	0.000000	0.000000	3.918420	7.372041	-35.102624	169.196457	-134.250555	83.830634	98.872144	82.507342	9.376385	14.466427	94.973143	-14.667155	147.517018	0.078608	1.425458	-69.778704	-24.112009
9.250000	-9.166473	1.083795	91.306347	0.106104	1.087776	0.268797	-3.417390	-9.693408	-24.500630	16.020623	0.279613	41.970352	17.924462	0.000000	-1.125562	7.226189	0.962917	13.739867	0.239806	34.738878	13.565686	0.000000	-0.225725	-1.363206	3.836773	-0.419194	-1.813064	4.076571	-0.370844	-3.314499	4.076571	-0.257981	-3.314499	3.357176	-0.209608	-2.779850	3.117378	-0.128979	-2.111606	2.877579	-1.612331	-15.420858	21.338978	0.000000	0.000000	3.842651	7.099100	-34.747669	169.011452	-134.089365	83.831039	98.774413	83.007158	9.793454	15.820570	94.795302	-14.828266	147.013316	0.078366	1.423102	-69.782930	-24.116504
9.267857	-9.060326	1.084985	91.541587	0.105997	1.087768	0.269434	-3.482375	-9.539736	-24.787212	15.935924	0.278134	41.964087	18.016009	0.000000	-1.053477	7.093495	1.296324	13.899544	0.242593	34.719561	13.403520	0.000000	-0.232101	-1.343212	3.809575	-0.431036	-1.786472	4.047674	-0.381319	-3.265887	4.047674	-0.265269	-3.265887	3.333378	-0.215529	-2.739079	3.095280	-0.132623	-2.080636	2.857181	-1.657878	-15.194687	21.187714	0.000000	0.000000	3.707940	6.881860	-34.605095	168.888882	-134.065991	83.903006	98.908754	83.684483	9.777731	16.948582	94.636904	-14.625306	146.644380	0.078011	1.425503	-69.786571	-24.122378
9.285714	-8.943795	1.100412	91.744172	0.105910	1.087772	0.270223	-3.539058	-9.378863	-25.031044	15.855165	0.276725	41.938428	18.091114	0.000000	-0.983172	6.947915	1.530246	14.043057	0.245098	34.761951	13.339668	0.000000	-0.242136	-1.324064	3.802381	-0.449671	-1.761005	4.040029	-0.397805	-3.219329	4.040029	-0.276737	-3.219329	3.327083	-0.224848	-2.700031	3.089434	-0.138357	-2.050975	2.851785	-1.729554	-14.978077	21.147700	0.000000	0.000000	3.542694	6.720401	-34.637158	168.986537	-134.157726	84.151995	99.189032	84.446698	9.334532	17.719145	94.508155	-14.146769	146.408222	0.077626	1.443052	-69.788944	-24.129145
9.303571	-8.815600	1.121292	91.932239	0.105715	1.087763	0.271067	-3.583168	-9.219124	-25.263368	15.792818	0.275637	41.903859	18.154818	0.000000	-0.909180	6.797888	1.708398	14.174667	0.247395	34.860100	13.335091	0.000000	-0.252376	-1.304614	3.806179	-0.468687	-1.735136	4.044065	-0.414628	-3.172037	4.044065	-0.288440	-3.172037	3.330407	-0.234356	-2.660368	3.092521	-0.144207	-2.020846	2.854634	-1.802694	-14.758049	21.168827	0.000000	0.000000	3.376975	6.592133	-34.788266	169.263808	-134.310594	84.595826	99.560091	85.197783	8.502938	17.967258	94.391945	-13.441427	146.265773	0.077359	1.494290	-69.788079	-24.138361
9.321429	-8.679000	1.164817	92.073963	0.105518	1.087759	0.271965	-3.637059	-9.054114	-25.420650	15.720585	0.274376	41.842155	18.189473	0.000000	-0.857291	6.639094	1.763321	14.281409	0.249258	34.998422	13.423593	0.000000	-0.264633	-1.286652	3.810784	-0.491450	-1.711248	4.048958	-0.434765	-3.128366	4.048958	-0.302449	-3.128366	3.334436	-0.245738	-2.623741	3.096262	-0.151211	-1.993024	2.858088	-1.890246	-14.554868	21.194435	0.000000	0.000000	3.236569	6.524083	-35.011507	169.928351	-134.530958	85.365356	99.976354	85.851587	7.493456	17.833885	94.312625	-12.606800	146.314630	0.077247	1.558342	-69.784280	-24.148567
9.339286	-8.529802	1.212362	92.200433	0.105240	1.087739	0.272829	-3.689845	-8.882137	-25.547135	15.649327	0.273132	41.763225	18.202913	0.000000	-0.811558	6.473020	1.764495	14.370758	0.250817	35.160812	13.551837	0.000000	-0.275549	-1.269400	3.812142	-0.511722	-1.688302	4.050401	-0.452699	-3.086418	4.050401	-0.314925	-3.086418	3.335624	-0.255875	-2.588560	3.097365	-0.157449	-1.966300	2.859106	-1.968217	-14.359703	21.201989	0.000000	0.000000	3.135628	6.496355	-35.301047	170.851864	-134.804527	86.414015	100.466102	86.449410	6.334776	17.333747	94.256321	-11.640538	146.550958	0.077311	1.635033	-69.776469	-24.160391
9.357143	-8.376415	1.273310	92.253310	0.105015	1.087719	0.273663	-3.736152	-8.710770	-25.561336	15.578768	0.271901	41.667837	18.192451	0.000000	-0.791107	6.301225	1.600045	14.423153	0.251732	35.333000	13.781106	0.000000	-0.286916	-1.255746	3.821474	-0.532831	-1.670142	4.060316	-0.471374	-3.053221	4.060316	-0.327916	-3.053221	3.343790	-0.266430	-2.560718	3.104947	-0.163944	-1.945151	2.866105	-2.049410	-14.205252	21.253890	0.000000	0.000000	3.070396	6.550815	-35.707822	172.014487	-135.166994	87.720132	101.031754	86.962074	5.069177	16.541464	94.242518	-10.532420	146.994144	0.077517	1.708286	-69.766128	-24.170618
9.375000	-8.207563	1.346856	92.275386	0.104726	1.087708	0.274430	-3.802026	-8.527977	-25.539601	15.486679	0.270294	41.562885	18.185430	0.000000	-0.796522	6.123398	1.405219	14.446993	0.252148	35.517078	13.998463	0.000000	-0.298603	-1.241947	3.832782	-0.554535	-1.651789	4.072330	-0.490574	-3.019669	4.072330	-0.341273	-3.019669	3.353684	-0.277282	-2.532578	3.114135	-0.170622	-1.923775	2.874586	-2.132888	-14.049149	21.316782	0.000000	0.000000	3.037416	6.682443	-36.172572	173.330483	-135.567214	89.186162	101.701254	87.017384	4.080303	15.794297	94.241775	-9.299656	147.555826	0.077832	1.769419	-69.754360	-24.181869
9.392857	-8.031131	1.411928	92.242848	0.104431	1.087690	0.275070	-3.859065	-8.340450	-25.440419	15.380089	0.268433	41.455495	18.161600	0.000000	-0.811826	5.946943	1.155566	14.435540	0.251948	35.722022	14.215473	0.000000	-0.308227	-1.230235	3.861334	-0.572408	-1.636212	4.102667	-0.506386	-2.991193	4.102667	-0.352273	-2.991193	3.378667	-0.286220	-2.508695	3.137334	-0.176121	-1.905634	2.896000	-2.201635	-13.916664	21.475579	0.000000	0.000000	3.052601	6.897585	-36.739194	174.605382	-136.024448	90.640193	102.453741	86.894478	3.278761	14.989016	94.258164	-7.920797	148.220994	0.078247	1.812643	-69.741649	-24.190089
9.410714	-7.852521	1.474898	92.177978	0.104096	1.087681	0.275611	-3.917818	-8.156330	-25.307976	15.263231	0.266394	41.358740	18.139918	0.000000	-0.835667	5.776178	0.860362	14.405020	0.251415	35.959537	14.448350	0.000000	-0.317302	-1.219978	3.897594	-0.589262	-1.622570	4.141194	-0.521296	-2.966254	4.141194	-0.362645	-2.966254	3.410395	-0.294647	-2.487779	3.166795	-0.181307	-1.889745	2.923196	-2.266459	-13.800632	21.677249	0.000000	0.000000	3.104853	7.184710	-37.351283	175.836968	-136.509689	92.105402	103.243253	86.639866	2.574510	14.270036	94.287675	-6.471853	148.864878	0.078767	1.840106	-69.728935	-24.197578
9.428571	-7.669967	1.536804	92.075426	0.103753	1.087685	0.276042	-3.980372	-7.970726	-25.141776	15.129408	0.264058	41.278272	18.128281	0.000000	-0.871787	5.611298	0.543772	14.350936	0.250471	36.222001	14.656877	0.000000	-0.326149	-1.210233	3.943181	-0.605692	-1.609610	4.189630	-0.535831	-2.942561	4.189630	-0.372756	-2.942561	3.450283	-0.302862	-2.467908	3.203835	-0.186362	-1.874651	2.957386	-2.329653	-13.690401	21.930790	0.000000	0.000000	3.188452	7.501269	-38.011109	176.991721	-136.999867	93.505966	104.020118	86.554083	1.979686	13.620453	94.329970	-5.010636	149.483373	0.079507	1.853522	-69.715584	-24.201374
